# xmcd CD database file
#
# Track frame offsets:
#	150
#	14630
#	30157
#	40952
#	55800
#	77570
#	90622
#	106505
#	117915
#	129137
#	138430
#	152545
#	166680
#	180220
#	196457
#	209100
#	220367
#	231077
#	243487
#	257415
#	272217
#	286707
#
# Disc length: 4112 seconds
#
# Revision: 0
# Processed by: cddbd v1.5.1PL0 Copyright (c) Steve Scherf et al.
# Submitted via: CDex 1.51
#
DISCID=1f100e16
DTITLE=Various Artist - God Bless The USA
DYEAR=1900
DGENRE=Country
TTITLE0=Lee Greenwood/God Bless The USA
TTITLE1=Waylon Jennings/America
TTITLE2=Kingston Trio/Pastures Of Plenty
TTITLE3=Conway Twitty And Loretta Lynn/God Bless America Again
TTITLE4=Tex Ritter/The Americans
TTITLE5=Merle Haggard/The Fightin' Side Of Me
TTITLE6=Nitty Gritty Dirt Band/An American Dream
TTITLE7=Johnny Horton/Battle Of New Orleans
TTITLE8=Chris LeDoux/Fourth Of July Rodeos
TTITLE9=Tennessee Ernie Ford/God Bless America
TTITLE10=Tex Ritter/Deck Of Cards
TTITLE11=Tex Ritter/The Pledge Of Allegiance
TTITLE12=Tennessee Ernie Ford/America The Beautiful
TTITLE13=Rands Travis/Point Of Light
TTITLE14=Roy Acuff/Wabash Cannonball
TTITLE15=SSgt. Barry Sadler/Ballad Of The Green Berets
TTITLE16=Tex Ritter/Old Glory
TTITLE17=Merle Haggard/Okie From Muskogee
TTITLE18=Merle Travis/John Henry
TTITLE19=Tex Ritter/America, Our Land
TTITLE20=Kingston Trio/This Land Is Your Land
TTITLE21=Nitty Gritty Dirt Band/Will The Circle Be Unbroken
EXTD=
EXTT0=
EXTT1=
EXTT2=
EXTT3=
EXTT4=
EXTT5=
EXTT6=
EXTT7=
EXTT8=
EXTT9=
EXTT10=
EXTT11=
EXTT12=
EXTT13=
EXTT14=
EXTT15=
EXTT16=
EXTT17=
EXTT18=
EXTT19=
EXTT20=
EXTT21=
PLAYORDER=
